<svg xmlns="http://www.w3.org/2000/svg" width="211.156" height="132.606" viewBox="0 0 211.156 132.606"><defs><style>.a,.h{fill:#6c63ff;}.a,.c{opacity:0.1;}.b{fill:#be6f72;}.d{fill:#3f3d56;}.e{fill:#fbbebe;}.f{fill:#e3e8f4;}.g{fill:#f86d70;}.i{opacity:0.2;}</style></defs><path class="a" d="M245.1,338.257c-2.119,5.095-6.551,9.7-11.31,14.055q-6.274,5.748-13.423,11.109-1.981,1.488-4.025,2.939l-.947.668q-1.259.891-2.561,1.765l-.1.071q-1.263.859-2.548,1.7a69.849,69.849,0,0,1-9.042,5.184c-1.116.517-2.268,1-3.46,1.43q-.967.352-1.975.658c-1.1.335-2.232.627-3.413.867-.2.041-.4.08-.6.117-1.209.227-2.433.392-3.67.506a56.433,56.433,0,0,1-13.756-.6c-2.269-.355-4.5-.813-6.665-1.334-.266-.063-.53-.128-.8-.186-7.361-1.842-14.271-4.342-21.684-6.1q-3.832-.91-7.813-1.544-1.942-.309-3.906-.558c-3.082-.383-6.2-.64-9.338-.77a57.1,57.1,0,0,0-12.612.632q-.8.147-1.587.331-.993.232-1.949.53a34.707,34.707,0,0,0-5,2.059c-.318.156-.632.314-.947.474h0c-.986.5-1.959,1.016-2.946,1.514a37.19,37.19,0,0,1-5.532,2.348,29.284,29.284,0,0,1-3.177.811,46.813,46.813,0,0,1-8.9.809c-1.464,0-2.93-.032-4.379-.108h-.045c-.495-.026-.991-.056-1.488-.093-2.262-.154-4.516-.392-6.737-.718-7.61-1.116-14.827-3.226-20.633-6.444-7.885-4.368-12.893-10.88-12.141-17.387.539-4.688,3.89-9.04,7.069-13.3,5.913-7.935,11.453-16.051,14.368-24.606,2.364-6.944,3.069-14.286,8.51-20.527a28.522,28.522,0,0,1,6.566-5.419,41.931,41.931,0,0,1,6.079-3.073,52.545,52.545,0,0,1,7.327-2.39,58.312,58.312,0,0,1,6.57-1.235c1.2-.156,2.418-.277,3.642-.359q1.414-.1,2.84-.125h.147q.872-.017,1.745,0a81.3,81.3,0,0,1,12.649,1.189c2.615.437,5.208.973,7.748,1.563q2.273.526,4.505,1.1c.454.117.908.236,1.356.357,10.588,2.837,19.9,6.754,30.1,9.969.052.017.1.034.154.047h0a62.852,62.852,0,0,0,6.369,1.6q2.369.474,4.836.83c2.515.372,5.084.666,7.671.919l.571.056c3.8.372,7.627.649,11.347.973,1.321.115,2.63.234,3.921.372q1.228.123,2.433.26c.577.067,1.155.134,1.734.2s1.191.145,1.786.221c.387.048.772.1,1.159.153,2.344.311,4.682.658,6.994,1.057,1.406.242,2.805.5,4.187.783q1.5.305,2.976.644,1.094.247,2.169.521a67.027,67.027,0,0,1,15.971,5.975C243.7,317.47,249.155,328.514,245.1,338.257Z" transform="translate(-35.269 -246.911)"/><circle class="a" cx="4.024" cy="4.024" r="4.024" transform="translate(42.292 8.769)"/><circle class="a" cx="4.024" cy="4.024" r="4.024" transform="translate(124.531 0)"/><circle class="a" cx="4.024" cy="4.024" r="4.024" transform="translate(173.295 9.011)"/><circle class="a" cx="6.743" cy="6.743" r="6.743" transform="translate(0 15.783)"/><circle class="a" cx="6.743" cy="6.743" r="6.743" transform="translate(6.464 49.08)"/><circle class="a" cx="6.743" cy="6.743" r="6.743" transform="translate(187.442 36.824)"/><path class="b" d="M350.349,309.259a7.255,7.255,0,0,1-.1,1.693c-.372,1.728-1.946,2.915-3.469,3.815s-3.2,1.752-4.1,3.272a5.571,5.571,0,0,0,.538,6.019,8.875,8.875,0,0,0,5.4,3.162,12.512,12.512,0,0,0,10.848-2.96,11.83,11.83,0,0,0,3.592-10.6c-1.551.218-2.933-1.151-3.436-2.636a23.417,23.417,0,0,1-.593-4.65,1.6,1.6,0,0,0-.231-.744,1.671,1.671,0,0,0-.962-.523c-1.793-.493-4.81-1.572-6.669-1.159C349.495,304.33,350.321,307.853,350.349,309.259Z" transform="translate(-284.434 -264.736)"/><path class="c" d="M350.349,309.259a7.255,7.255,0,0,1-.1,1.693c-.372,1.728-1.946,2.915-3.469,3.815s-3.2,1.752-4.1,3.272a5.571,5.571,0,0,0,.538,6.019,8.875,8.875,0,0,0,5.4,3.162,12.512,12.512,0,0,0,10.848-2.96,11.83,11.83,0,0,0,3.592-10.6c-1.551.218-2.933-1.151-3.436-2.636a23.417,23.417,0,0,1-.593-4.65,1.6,1.6,0,0,0-.231-.744,1.671,1.671,0,0,0-.962-.523c-1.793-.493-4.81-1.572-6.669-1.159C349.495,304.33,350.321,307.853,350.349,309.259Z" transform="translate(-284.434 -264.736)"/><path class="b" d="M336.627,742.253a37.194,37.194,0,0,1-5.532,2.348,29.29,29.29,0,0,1-3.177.811,20,20,0,0,1,.232-4.278,22.762,22.762,0,0,0,.415-2.442,6.407,6.407,0,0,0-.735-3.43,30.307,30.307,0,0,1,6.122-.608l.132.009a2.323,2.323,0,0,1,.725.136,1.959,1.959,0,0,1,.787.692,4.749,4.749,0,0,1,.3.456,7.254,7.254,0,0,1,.858,3.395A22.573,22.573,0,0,1,336.627,742.253Z" transform="translate(-272.879 -615.38)"/><path class="b" d="M402.343,748.937q-.993.233-1.949.53a34.708,34.708,0,0,0-5,2.059,7.385,7.385,0,0,1-.152-1.54,8.6,8.6,0,0,1,6.576-1.352.868.868,0,0,1,.417.167A.558.558,0,0,1,402.343,748.937Z" transform="translate(-327.749 -626.643)"/><path class="d" d="M332.97,603.39a14.283,14.283,0,0,1-.744,3.581c-.467,1.228-1.226,2.418-1.129,3.73.043.569.236,1.187.264,1.75q-.8.147-1.587.331-.993.233-1.949.53a34.713,34.713,0,0,0-5,2.059c-.318.156-.633.314-.947.474h0c-.13-.017-.259-.037-.389-.061a3.806,3.806,0,0,1-2.435-1.33,2.136,2.136,0,0,1-.281-.558c-.3-.906.013-2.035-.618-2.753l-.03.026-.022.015a6.246,6.246,0,0,1-1.131.815h0a7.58,7.58,0,0,1-6.139.592,6.721,6.721,0,0,1-1.151-.517,2.7,2.7,0,0,1-1.607-2.277c.037-.543.348-1.064.264-1.6a3.351,3.351,0,0,0-.5-1.045c-1.244-2.232.24-5.1-.541-7.528-.019-.058-.039-.115-.06-.171-.058-.158-.123-.311-.186-.463-.16-.355-.339-.705-.48-1.07a6.225,6.225,0,0,1-.279-.943,11.806,11.806,0,0,1-.186-2.831,29.615,29.615,0,0,1,1.083-7.463c.113-.428.24-1.032.407-1.691h0a12.947,12.947,0,0,1,.658-2.031,2.641,2.641,0,0,1,1.57-1.7c1.042-.244,2.634.272,3.691.4l4.176.5,8.35,1a9.193,9.193,0,0,1,4.144,1.183c.078.054.154.11.231.169a4.714,4.714,0,0,1,.837.852c.086.11.167.225.246.342a7.739,7.739,0,0,1,.688,1.313c1.036,2.489,1.06,5.266,1.068,7.961A81.355,81.355,0,0,1,332.97,603.39Z" transform="translate(-255.179 -490.486)"/><path class="c" d="M357.145,683.817c-.251-.967-.781-2.368-.859-2.749a34.878,34.878,0,0,1-.569-3.873c-.206-2.318-.579-5.58.24-7.785a5.345,5.345,0,0,1,1.8,2.359c1.287,2.867-.162,6.386,1.047,9.286a1.529,1.529,0,0,1,.166.558,1.35,1.35,0,0,1-.257.685l-.407.677Z" transform="translate(-295.362 -562.293)"/><path class="b" d="M483.388,192.547c1.369-2.232,3.244-4.427,3.127-7.037a13.94,13.94,0,0,0-.58-2.751,17.552,17.552,0,0,1-.128-8.053,9.094,9.094,0,0,1,6.577,1.473,3.754,3.754,0,0,1,1.453,1.633,4.727,4.727,0,0,1,.162,2.026,7.933,7.933,0,0,1-1.205,4.464c-.3.385-.668.711-.96,1.1a7.118,7.118,0,0,0-.919,1.9l-3.162,8.6c-1.6,4.336-3.326,8.871-6.842,11.871-.086.073-2.6-3.5-2.813-3.864-.843-1.471-.474-2.093.545-3.324C480.653,198.157,481.745,195.22,483.388,192.547Z" transform="translate(-394.815 -159.518)"/><path class="e" d="M260.745,665.33a14.3,14.3,0,0,1-.162,1.918c-.033.234-.073.467-.119.7-.634,3.311-2.214,6.46-3.318,9.686a56.284,56.284,0,0,0-2.6,12.18c-1.464,0-2.93-.032-4.379-.108h-.045c-.495-.026-.991-.056-1.488-.093.448-3.943-.372-8.08.43-12.028.324-1.589.876-3.131,1.209-4.712a13.346,13.346,0,0,0,.233-1.41,3.782,3.782,0,0,1,.273-1.323.972.972,0,0,1,.063-.113,3.183,3.183,0,0,1,.655-.744,16.338,16.338,0,0,1,8.01-3.819C259.925,665.406,260.336,665.358,260.745,665.33Z" transform="translate(-208.412 -558.972)"/><path class="c" d="M260.745,665.33a14.3,14.3,0,0,1-.162,1.918c-.033.234-.073.467-.119.7-.634,3.311-2.214,6.46-3.318,9.686a56.284,56.284,0,0,0-2.6,12.18c-1.464,0-2.93-.032-4.379-.108h-.045c-.495-.026-.991-.056-1.488-.093.448-3.943-.372-8.08.43-12.028.324-1.589.876-3.131,1.209-4.712a13.346,13.346,0,0,0,.233-1.41,3.782,3.782,0,0,1,.273-1.323.972.972,0,0,1,.063-.113,3.183,3.183,0,0,1,.655-.744,16.338,16.338,0,0,1,8.01-3.819C259.925,665.406,260.336,665.358,260.745,665.33Z" transform="translate(-208.412 -558.972)"/><path class="e" d="M206.928,682.452a29.147,29.147,0,0,1-.255,3.09c-.5,4.187-.59,8.557-.93,12.807-.495-.026-.991-.056-1.488-.093-2.262-.154-4.516-.393-6.737-.718q.257-1.436.517-2.872a15.551,15.551,0,0,0,.363-3.549,20.773,20.773,0,0,0-.6-3.324,50.784,50.784,0,0,0-1.641-7.139A9.3,9.3,0,0,0,194.1,677.3c3.486-1.369,6.836-1.447,10.581-1.3a1.341,1.341,0,0,1,.759.186,1.284,1.284,0,0,1,.381.577,14.428,14.428,0,0,1,1.047,4.245A13.921,13.921,0,0,1,206.928,682.452Z" transform="translate(-164.025 -567.617)"/><circle class="b" cx="7.255" cy="7.255" r="7.255" transform="translate(63.727 29.054)"/><path class="f" d="M334.412,361.98c.93-1.587,1.745-3.568,3.534-4.009a5.49,5.49,0,0,1,3.045.428,1.487,1.487,0,0,1,.744.432,1.462,1.462,0,0,1,.225.77,50.424,50.424,0,0,1-.032,9.859c-.236,2.32-.634,4.628-.705,6.959-.1,3.231.433,6.462.259,9.69a44.541,44.541,0,0,1-1.2,7.24l-2.232,10.008a1.706,1.706,0,0,1-.359.846,1.674,1.674,0,0,1-.659.372A24.509,24.509,0,0,1,317.2,403.02a6.018,6.018,0,0,1-2.134-1.71,5.009,5.009,0,0,1-.571-3.772c.242-1.284.765-2.495,1.116-3.754a28.887,28.887,0,0,0,.794-6.016,47.665,47.665,0,0,0,.043-8c-.2-1.829-.6-3.629-.91-5.443a60.036,60.036,0,0,1-.785-8.265c-.047-1.654.03-3.49,1.174-4.682a5.393,5.393,0,0,1,2.059-1.213,6.086,6.086,0,0,1,3.973-.316,2.841,2.841,0,0,1,2.015,3.093c-.14.612-.536,1.148-.632,1.769a2.55,2.55,0,0,0,.93,2.206C327.623,369.949,332.74,364.852,334.412,361.98Z" transform="translate(-261.922 -308.716)"/><path class="d" d="M398.591,310.136a5.486,5.486,0,0,1,3.179-.186,3.079,3.079,0,0,0,2.016.143c.225-.108.411-.285.638-.385.614-.27,1.41.061,1.953-.331a1.923,1.923,0,0,0,.569-1.107,9.924,9.924,0,0,1,3.279-4.97c-.2,1.427-.337,3.051.606,4.141a4.134,4.134,0,0,0,1.643,1.047,4.913,4.913,0,0,0,2.762.389,2.4,2.4,0,0,0,1.936-1.821c-.032,1.4-1.365,2.379-1.739,3.731-.141.506-.128,1.044-.227,1.561a8.63,8.63,0,0,1-2.018,3.445,24.509,24.509,0,0,0-4.874,11.76,5.676,5.676,0,0,1-.316,1.488,9.357,9.357,0,0,1-.618,1.064c-1.363,2.3-.943,5.208-.48,7.839a112.393,112.393,0,0,0,2.617,12.173,4.227,4.227,0,0,0,.939,1.9c-.162,1.624-1.8,2.364-3.274,3.066a16.059,16.059,0,0,0-3.981,2.7,3.137,3.137,0,0,0-1,1.386c-.145.523-.041,1.1-.227,1.605s-.93.872-1.257.445c-.409-1.531.29-3.133.259-4.717-.022-1.07-.372-2.109-.422-3.179a10.174,10.174,0,0,1,.688-3.549c1.057-3.2,2.333-6.373,2.7-9.723s-.318-7.009-2.7-9.4c-2.822-2.85-4.388-6.713-7.413-9.331-.48-.415-1.023-.93-.943-1.559a1.736,1.736,0,0,1,.355-.755c1.038-1.466,2.418-2.662,3.534-4.064A6.665,6.665,0,0,0,398.591,310.136Z" transform="translate(-325.835 -264.285)"/><path class="d" d="M316.168,354.391a5.437,5.437,0,0,1-.53.6,1.749,1.749,0,0,1-.835.259,27.012,27.012,0,0,1-3.306.3,10.2,10.2,0,0,0-2.79.173,4.98,4.98,0,0,0-2.87,2.474,12.27,12.27,0,0,0-1.161,3.7,49.43,49.43,0,0,0-.846,8.536,22.45,22.45,0,0,0,4.064-4.219,12.27,12.27,0,0,1,2.976-3.359c.586-.372,1.244-.618,1.834-.98a10.518,10.518,0,0,0,2.9-3.162c.6-.876,2.346-2.587,2.483-3.637A1.071,1.071,0,0,0,316.168,354.391Z" transform="translate(-253.344 -305.54)"/><path class="d" d="M367.945,234.839a5.875,5.875,0,0,1,.659.459c1.263.882,2.954.718,4.481.517a3.364,3.364,0,0,0,1.352-.372,2.114,2.114,0,0,0,.885-1.974,3.929,3.929,0,0,0-.91-2.046,7.361,7.361,0,0,0-5.088-2.775,3.274,3.274,0,0,0-1.523.162,12.274,12.274,0,0,0-1.607,1.1c-1.635,1-4.154.558-5.208,2.161-.772,1.183-.221,2.79-.586,4.15-.272,1.016-1.055,1.94-.9,2.976a4.8,4.8,0,0,0,.712,1.544,6.823,6.823,0,0,1,.854,3.763c.716.506,1.715-.281,1.914-1.133s-.03-1.76.14-2.619c.3-1.509,1.631-2.615,2.232-4C365.78,235.76,366.483,234.086,367.945,234.839Z" transform="translate(-298.64 -203.497)"/><path class="e" d="M275.447,324.992a1.4,1.4,0,0,0,.1,1c.372.558,1.224.357,1.894.441a2.58,2.58,0,0,1,2.016,2.154,7.082,7.082,0,0,1-.3,3.114q-.9,3.465-2.135,6.832c-2.221-.262-4.559-1.116-5.739-3.012-1.071-1.724-.962-3.921-1.642-5.833a14.58,14.58,0,0,0-2.184-3.668c1.363.171,2.338-1.388,2.418-2.76s-.352-2.766-.058-4.107c.069-.318,5.443.685,5.965,1.047C277.286,321.246,275.685,323.537,275.447,324.992Z" transform="translate(-223.731 -277.138)"/><path class="c" d="M275.447,324.992a1.4,1.4,0,0,0,.1,1c.372.558,1.224.357,1.894.441a2.58,2.58,0,0,1,2.016,2.154,7.082,7.082,0,0,1-.3,3.114q-.9,3.465-2.135,6.832c-2.221-.262-4.559-1.116-5.739-3.012-1.071-1.724-.962-3.921-1.642-5.833a14.58,14.58,0,0,0-2.184-3.668c1.363.171,2.338-1.388,2.418-2.76s-.352-2.766-.058-4.107c.069-.318,5.443.685,5.965,1.047C277.286,321.246,275.685,323.537,275.447,324.992Z" transform="translate(-223.731 -277.138)"/><circle class="e" cx="7.255" cy="7.255" r="7.255" transform="translate(43.265 31.1)"/><path class="d" d="M213.835,263.934c.264-.413-.186-.99.02-1.434.123-.268.433-.383.673-.558a2.509,2.509,0,0,0,.7-.91,10.573,10.573,0,0,0,.967-7.059c-.171-.8-.324-1.871.411-2.232a1.333,1.333,0,0,1,.649-.112c1.324.043,2.6.93,3.89.616a2.232,2.232,0,0,0,1.637-1.948,4.1,4.1,0,0,0-1.7-3.041c-1.594-1.466-4.023-1.791-6.189-1.827l-4.027-.067c-1.289-.022-2.734.019-3.631.943-1.291,1.33-.642,3.506-.828,5.35a5.58,5.58,0,0,1-2.046,3.748c-.835.666-1.985,1.3-1.97,2.366a3.848,3.848,0,0,0,.262,1.062,5.125,5.125,0,0,1-.77,4.148,11.062,11.062,0,0,1-3.138,2.976,8.747,8.747,0,0,0-1.808,1.451,4.278,4.278,0,0,0-.943,2.405,3.162,3.162,0,0,0,.394,1.94,3.031,3.031,0,0,0,3.968.712,6.457,6.457,0,0,0,2.6-3.5c.313-.824.631-1.767,1.43-2.137,1.012-.471,2.195.273,2.853,1.176a15,15,0,0,0,1.907,2.736,3.406,3.406,0,0,0,4.684-.387,5.265,5.265,0,0,0,.93-3.566,5.2,5.2,0,0,0-.93-2.855Z" transform="translate(-165.549 -217.122)"/><path class="g" d="M170.517,349.907a2.67,2.67,0,0,1-2.308-.8,9.169,9.169,0,0,1-1.462-2.067,36.385,36.385,0,0,0-3.748-5.2c-1.22-1.408-2.919-2.839-4.73-2.4a4.488,4.488,0,0,0-1.652.884,12.043,12.043,0,0,0-4.5,10.748c.141,1.185.463,2.344.6,3.534a22.653,22.653,0,0,1,.078,2.952c-.05,3-.153,6.17-1.769,8.7-2.506,3.906-3.847,8.572-5.686,12.835a43.807,43.807,0,0,0-2.173,7.2q-.519,2.173-1.036,4.343l-2.251,9.468a6.316,6.316,0,0,0-.22,2.976,4.414,4.414,0,0,0,3.188,2.893,16.682,16.682,0,0,0,4.477.357,25.062,25.062,0,0,1,8.462,1.382,9.075,9.075,0,0,0,2.359.692,5.488,5.488,0,0,0,2.405-.445,40.448,40.448,0,0,0,5.824-3.38,23.014,23.014,0,0,1,3.795-1.836A4.162,4.162,0,0,0,172,401.718a3.3,3.3,0,0,0,.612-1.46c.629-2.932.206-5.969,0-8.96s-1.994-6.152-.515-8.759a7.017,7.017,0,0,0,.805-1.616c.2-.763.032-1.583.2-2.353a12.171,12.171,0,0,1,.629-1.626,8.571,8.571,0,0,0,.4-3.03,33.251,33.251,0,0,0-.707-6.7c-.586-2.79,1.352-5.549,2.463-8.185a13,13,0,0,0,1.127-2.844,8.768,8.768,0,0,0-.186-2.753,24.089,24.089,0,0,1-.26-4.278,14.393,14.393,0,0,0-.136-3.839,3.5,3.5,0,0,0-2.442-2.716,1,1,0,0,0-.841.132,1.088,1.088,0,0,0-.3.521,28.02,28.02,0,0,0-.558,3.906C172.069,348.462,171.8,349.632,170.517,349.907Z" transform="translate(-119.628 -293.64)"/><path class="b" d="M195.624,433.83c.076-.515-.164-1.2-.685-1.181-.48.019-.694.619-.692,1.1s.067,1.034-.273,1.373c-.3.3-.8.29-1.15.534a.945.945,0,0,0-.4.776c0,.259.117.506.125.764s-.166.558-.422.541a1.166,1.166,0,0,0,.169,1.414c.134.13.309.242.353.424a1.023,1.023,0,0,1-.03.381,1,1,0,0,0,.791,1.14.627.627,0,0,0,.033.93,1.455,1.455,0,0,0,1,.286,6.072,6.072,0,0,0,2.346-.485,1.4,1.4,0,0,0,.647-.446.558.558,0,0,0-.054-.722,1.094,1.094,0,0,0,1.031-.186c.329-.391-.024-.969-.372-1.347a.744.744,0,0,0,.346-1.324c-.119-.087-.281-.164-.3-.311s.108-.242.16-.372c.119-.292-.153-.59-.415-.766-.621-.413-1.536-.405-2.089-.822S195.544,434.388,195.624,433.83Z" transform="translate(-162.288 -369.573)"/><path class="d" d="M401.492,287.257a8.794,8.794,0,0,1-1.356.032.3.3,0,0,0-.326.257l-.865,6.488a2.634,2.634,0,0,1-.558,1.285,2.8,2.8,0,0,0-.631,2.141v11.021s-.056,1.47,1.073,1.47a16.322,16.322,0,0,0,4.07,0s.9-.171.9-1.527V297.571a2.654,2.654,0,0,0-.558-2.158,2.7,2.7,0,0,1-.541-1.278l-.9-6.624A.3.3,0,0,0,401.492,287.257Z" transform="translate(-329.781 -251.225)"/><path class="c" d="M401.492,287.257a8.794,8.794,0,0,1-1.356.032.3.3,0,0,0-.326.257l-.865,6.488a2.634,2.634,0,0,1-.558,1.285,2.8,2.8,0,0,0-.631,2.141v11.021s-.056,1.47,1.073,1.47a16.322,16.322,0,0,0,4.07,0s.9-.171.9-1.527V297.571a2.654,2.654,0,0,0-.558-2.158,2.7,2.7,0,0,1-.541-1.278l-.9-6.624A.3.3,0,0,0,401.492,287.257Z" transform="translate(-329.781 -251.225)"/><rect class="h" width="5.482" height="9.269" rx="2.741" transform="translate(68.29 46.431)"/><path class="d" d="M510.649,136.391a8.576,8.576,0,0,1-1.239.558.3.3,0,0,0-.2.361l1.7,6.325a2.626,2.626,0,0,1-.015,1.4,2.79,2.79,0,0,0,.242,2.219l4.245,10.171s.513,1.377,1.557.941a16.207,16.207,0,0,0,3.758-1.574s.768-.506.247-1.756l-4.18-10.015a2.662,2.662,0,0,0-1.345-1.778,2.706,2.706,0,0,1-.991-.969l-3.38-5.766A.3.3,0,0,0,510.649,136.391Z" transform="translate(-420.509 -128.396)"/><rect class="h" width="5.482" height="9.269" rx="2.741" transform="translate(90.99 18.912) rotate(-22.65)"/><path class="e" d="M225.637,341.977c-2,.824-2.79,3.387-2.321,5.5a13.9,13.9,0,0,0,3.257,5.54l3.858,4.706c1.066,1.3,2.232,2.673,3.858,3.127,2.377.664,4.755-.85,6.81-2.219a102.589,102.589,0,0,1,19.561-10.186,6.579,6.579,0,0,0,1.912-.99,3.526,3.526,0,0,0,.83-4.092,4.1,4.1,0,0,0-3.622-2.243,4.894,4.894,0,0,0-3.854,1.979c-.43.571-.744,1.224-1.159,1.8a11.374,11.374,0,0,1-4.288,3.175,109.5,109.5,0,0,1-11.9,5.208,2.911,2.911,0,0,1-2.284.171,2.774,2.774,0,0,1-.98-1.049,26.053,26.053,0,0,1-2.809-5.986c-.508-1.581-.919-3.3-2.139-4.427a4.26,4.26,0,0,0-6.159.744s-1.52,2.223-.59,3.153S225.637,341.977,225.637,341.977Z" transform="translate(-187.7 -294.972)"/><path class="e" d="M783.038,292.925a5.675,5.675,0,0,1,.24,2.288c-.048.941-.285,2.046-1.159,2.405-.569.229-1.272.056-1.778.4-.614.417-.584,1.313-.489,2.046a13.847,13.847,0,0,0,1.656,5.807,12.337,12.337,0,0,0,2.2,2.4,12.9,12.9,0,0,0,5.5,3.361,2.3,2.3,0,0,0,1.06.045,2.2,2.2,0,0,0,.917-.558,15.881,15.881,0,0,0,2.679-4.195,15.581,15.581,0,0,0,1.594-3.2,5.581,5.581,0,0,0-1.708-5.631c-.363-.311-.765-.571-1.116-.893a5.725,5.725,0,0,1-1.674-3.25,14.222,14.222,0,0,1-.08-3.72,20.243,20.243,0,0,0-5.523.445,10.753,10.753,0,0,0-2.675.621C781.857,291.742,782.813,292.3,783.038,292.925Z" transform="translate(-640.776 -253.618)"/><path class="c" d="M783.038,292.925a5.675,5.675,0,0,1,.24,2.288c-.048.941-.285,2.046-1.159,2.405-.569.229-1.272.056-1.778.4-.614.417-.584,1.313-.489,2.046a13.847,13.847,0,0,0,1.656,5.807,12.337,12.337,0,0,0,2.2,2.4,12.9,12.9,0,0,0,5.5,3.361,2.3,2.3,0,0,0,1.06.045,2.2,2.2,0,0,0,.917-.558,15.881,15.881,0,0,0,2.679-4.195,15.581,15.581,0,0,0,1.594-3.2,5.581,5.581,0,0,0-1.708-5.631c-.363-.311-.765-.571-1.116-.893a5.725,5.725,0,0,1-1.674-3.25,14.222,14.222,0,0,1-.08-3.72,20.243,20.243,0,0,0-5.523.445,10.753,10.753,0,0,0-2.675.621C781.857,291.742,782.813,292.3,783.038,292.925Z" transform="translate(-640.776 -253.618)"/><path class="e" d="M599.23,178.221c-3.021-1.036-4.464-5.084-7.627-5.538-.5-.073-1.01-.045-1.5-.16-1.821-.432-2.6-2.537-3.131-4.332a70.178,70.178,0,0,0-7.385-17.145C578.2,148.814,576,146.98,575,144.536a5.053,5.053,0,0,0-.763-1.635c-.415-.441-1.3-.5-1.527.058a1.3,1.3,0,0,0-.041.616l.218,2.316-3.783-.34a2.21,2.21,0,0,0-1.047.074,1.776,1.776,0,0,0-.824.858c-1.28,2.405.084,5.556,2.342,7.078,2.638,1.776,6.4,2.046,8.157,4.7,1.042,1.577,1.062,3.607,1.748,5.368.327.843.805,1.616,1.187,2.433a50.219,50.219,0,0,1,1.663,4.872,42.944,42.944,0,0,0,3.2,6.63,17.075,17.075,0,0,0,3.274,4.617,16.1,16.1,0,0,0,3.118,2.046c2.69,1.47,5.861,2.883,8.711,1.756A19.077,19.077,0,0,0,599.23,178.221Z" transform="translate(-467.348 -133.44)"/><path class="e" d="M749.117,729.025c-.229,2.427-1.7,4.626-2.046,6.963-2.269-.355-4.5-.813-6.665-1.334-.266-.063-.53-.128-.8-.186,1.224-3.348.158-7.1.482-10.664.032-.342.076-.685.136-1.023,2.8-.956,5.335-2.232,8.274-1.86.058.6.117,1.192.175,1.788q.177,1.784.35,3.564A14.454,14.454,0,0,1,749.117,729.025Z" transform="translate(-608.062 -604.168)"/><path class="e" d="M851.942,734.819c-1.1.335-2.232.627-3.413.867-.2.041-.4.08-.6.117-1.209.227-2.433.393-3.67.506-.126-2.586-1.86-4.963-2.113-7.617a11.186,11.186,0,0,1,.02-1.981c.022-.26.048-.521.073-.781l.525-5.352a8.263,8.263,0,0,1,1.259-.061c2.418.058,4.619,1.1,7.015,1.922a16.722,16.722,0,0,1,.186,3.415c-.091,2.906-.558,5.846.521,8.512C851.81,734.515,851.877,734.666,851.942,734.819Z" transform="translate(-691.5 -603.89)"/><path class="g" d="M716.005,577.432c.326,2.537-.971,4.967-1.533,7.461a26.4,26.4,0,0,0-.473,5.041l-.294,10.14a9.041,9.041,0,0,0,.253,3.019,6.077,6.077,0,0,0,4.528,3.735,17.009,17.009,0,0,0,6.105-.037,6.36,6.36,0,0,0,2.857-.861,6.488,6.488,0,0,0,2.055-3.512l1.207-3.707c1.39,3.129.8,6.55,1.635,9.87a1.911,1.911,0,0,0,.372.843,2.085,2.085,0,0,0,1.456.489,41.872,41.872,0,0,0,10.928-.186,3.786,3.786,0,0,0,3.616-4.526c-.05-4.02-1.5-7.9-1.827-11.905-.139-1.717-.071-3.443-.132-5.166a34.572,34.572,0,0,0-.363-3.869,4.021,4.021,0,0,0-3.291-3.739C734.581,577.058,725.2,577.092,716.005,577.432Z" transform="translate(-586.963 -487.304)"/><circle class="e" cx="7.999" cy="7.999" r="7.999" transform="translate(136.831 24.217)"/><path class="f" d="M739.009,323.456a4.8,4.8,0,0,1-2.917,2.935,3.992,3.992,0,0,1-3.573-1.226,14.2,14.2,0,0,1-2.21-3.248,6.091,6.091,0,0,0-1.812-2.2,5.424,5.424,0,0,0-3.821-.485,17.525,17.525,0,0,1-3.906.5c-1.642-.11-3.317-.93-4.866-.383a29.4,29.4,0,0,1,.264,7.02,3.162,3.162,0,0,1-.149,1.049,3.39,3.39,0,0,1-.541.871l-1.488,1.918a9.288,9.288,0,0,1,3.534,4.667,11.738,11.738,0,0,1,.207,3.382c-.035,3.332.688,6.65.459,9.974-.268,3.893-1.823,7.573-2.625,11.392a29.824,29.824,0,0,0-.383,9.97,93.873,93.873,0,0,0,25.741,4.846,7.1,7.1,0,0,0,4.516-.8,4.913,4.913,0,0,0,1.86-3.3,14.662,14.662,0,0,0-.078-3.88q-.575-5.236-1.148-10.473a24.932,24.932,0,0,1,.42-10.382l1.86-8.94a18.4,18.4,0,0,1,1.06-3.735c.432-.967,1.029-1.86,1.5-2.8a12.373,12.373,0,0,0,1.161-3.585,2.376,2.376,0,0,0-.015-1.1,2.541,2.541,0,0,0-1.375-1.276,39.937,39.937,0,0,0-11-3.86A15.891,15.891,0,0,1,739.009,323.456Z" transform="translate(-587.208 -277.151)"/><path class="d" d="M793.7,225.968c.93-1.782,2.669-3.032,3.679-4.773a7.056,7.056,0,0,0,.227-6.511,23.564,23.564,0,0,1-1.116-2.15c-.311-.863-.34-1.814-.7-2.658a4.914,4.914,0,0,0-2.723-2.47,14.59,14.59,0,0,0-3.67-.82l-4.226-.569a4.65,4.65,0,0,0-1.842,0,1.561,1.561,0,0,0-1.2,1.267c-.058.731.584,1.412.435,2.13-.054.253-.2.51-.117.755a.767.767,0,0,0,.372.372,18.754,18.754,0,0,0,3.287.973c1.086.365,2.176,1.28,2.067,2.418-.06.612-.454,1.248-.186,1.8.257.508.93.6,1.468.759a3.933,3.933,0,0,1,2.707,4.185c-.078.558-.279,1.092-.32,1.652-.136,1.961.173,2.521,1.775,3.661Z" transform="translate(-642.673 -185.021)"/><path class="b" d="M877.4,333.636a2.714,2.714,0,0,1-.2,1.084c-.58,1.237-2.357,1.159-3.534,1.86-1.466.874-1.789,2.826-1.923,4.526a20.355,20.355,0,0,0,.138,5.766,7.754,7.754,0,0,0,2.928,4.836,7.454,7.454,0,0,0,6.754.571,15.091,15.091,0,0,0,5.638-4.122,17.968,17.968,0,0,0,3.683-5.539,1.764,1.764,0,0,0,.154-1.138c-.173-.558-.781-.811-1.276-1.116a5.631,5.631,0,0,1-2.325-3.2,13.894,13.894,0,0,1-.48-4c-.015-1.4-.019-2.932-.912-4.012a4.857,4.857,0,0,0-3.85-1.373c-1.153,0-4.345.11-5.132,1.116C876.417,329.732,877.446,332.438,877.4,333.636Z" transform="translate(-715.505 -284.21)"/><path class="c" d="M877.4,333.636a2.714,2.714,0,0,1-.2,1.084c-.58,1.237-2.357,1.159-3.534,1.86-1.466.874-1.789,2.826-1.923,4.526a20.355,20.355,0,0,0,.138,5.766,7.754,7.754,0,0,0,2.928,4.836,7.454,7.454,0,0,0,6.754.571,15.091,15.091,0,0,0,5.638-4.122,17.968,17.968,0,0,0,3.683-5.539,1.764,1.764,0,0,0,.154-1.138c-.173-.558-.781-.811-1.276-1.116a5.631,5.631,0,0,1-2.325-3.2,13.894,13.894,0,0,1-.48-4c-.015-1.4-.019-2.932-.912-4.012a4.857,4.857,0,0,0-3.85-1.373c-1.153,0-4.345.11-5.132,1.116C876.417,329.732,877.446,332.438,877.4,333.636Z" transform="translate(-715.505 -284.21)"/><path class="b" d="M844.9,568.214a1.589,1.589,0,0,0,.387.759,1.535,1.535,0,0,0,.627.3c6.1,1.791,12.627,1.077,18.947.346a36.119,36.119,0,0,1-1.975-8.06c-.2-2.279.024-4.65-.783-6.788-.238-.633-14.115,2.279-15.484,2.515-.7.121-1.509.08-2.005.636-.6.673-.649,2.277-.712,3.116A20.475,20.475,0,0,0,844.9,568.214Z" transform="translate(-692.923 -468.903)"/><path class="b" d="M865.73,707.82c-1.116.517-2.268,1-3.46,1.43q-.967.352-1.975.659c-1.1.335-2.232.627-3.413.867l-2.022-5.125c-.5-1.257-.993-2.521-1.408-3.806a23.833,23.833,0,0,1-.711-2.677,19.094,19.094,0,0,1,.461-9.258c2.578.486,5.1.8,7.638,1.17,1.356.186,2.716.405,4.092.664q.162,1.345.294,2.69.2,2.076.329,4.152Q865.839,703.2,865.73,707.82Z" transform="translate(-699.853 -578.98)"/><path class="c" d="M865.73,707.82c-1.116.517-2.268,1-3.46,1.43q-.967.352-1.975.659c-1.1.335-2.232.627-3.413.867l-2.022-5.125c-.5-1.257-.993-2.521-1.408-3.806a23.833,23.833,0,0,1-.711-2.677,19.094,19.094,0,0,1,.461-9.258c2.578.486,5.1.8,7.638,1.17,1.356.186,2.716.405,4.092.664q.162,1.345.294,2.69.2,2.076.329,4.152Q865.839,703.2,865.73,707.82Z" transform="translate(-699.853 -578.98)"/><path class="b" d="M917.219,718.741a12.049,12.049,0,0,1-.573,3.216c-.02.074-.039.147-.058.221a3.065,3.065,0,0,1-1.643-1.231,3.517,3.517,0,0,1-.441-1.032q-1.263.859-2.548,1.7a69.838,69.838,0,0,1-9.042,5.184c-1.116.517-2.268,1-3.46,1.43q-.372-1.3-.707-2.621a24.255,24.255,0,0,1-.573-2.751,13.973,13.973,0,0,1,.617-6.259h0l.084-.242a13.68,13.68,0,0,1,1.218-2.565c.463-.744,1.38-.619,2.316-.372.424.11.854.242,1.244.324,2.431.51,4.955-.017,7.441.123a8.893,8.893,0,0,1,3.413.869,4.687,4.687,0,0,1,2.537,2.79,4.161,4.161,0,0,1,.123.558A4.936,4.936,0,0,1,917.219,718.741Z" transform="translate(-737.037 -597.961)"/><path class="b" d="M647.27,211.1a86.476,86.476,0,0,0-12.673-9.822,34.816,34.816,0,0,1-3.348-2.387c-1.116-.93-2.089-2.022-3.274-2.859A5.463,5.463,0,0,0,623.9,194.9a2.971,2.971,0,0,0-2.48,3.062c.186,1.254,1.313,2.113,2.355,2.833a50.538,50.538,0,0,0,6.1,3.8,19.112,19.112,0,0,1,2.163,1.153,16.228,16.228,0,0,1,3.318,3.484,48.445,48.445,0,0,0,13.765,11.719c.063.037,2.264-4.712,2.171-5.327C651.087,214.2,648.282,212.081,647.27,211.1Z" transform="translate(-511.84 -175.989)"/><path class="d" d="M860.732,605.419c-2.965.186-5.809,1.187-8.709,1.825s-6.051.885-8.743-.372l1.637,11.178a5.186,5.186,0,0,1,.05,1.869,7.026,7.026,0,0,0-.42,1.732c.043.945.93,1.609,1.765,2.046a15.782,15.782,0,0,0,7.887,1.817c-.2.818-.456,1.628-.66,2.446,1.367,1.468,3.6,1.566,5.554,2.031,1.488.352,2.883.962,4.342,1.391a18.532,18.532,0,0,0,5.433.757,5.648,5.648,0,0,0,3.519-.96c1.185-.954,1.553-2.576,1.81-4.076a9.267,9.267,0,0,0,.186-2.53,10.033,10.033,0,0,0-.844-2.79l-2.548-6.185c-.463-1.116-.93-2.249-1.488-3.326C867.68,608.789,864.655,605.175,860.732,605.419Z" transform="translate(-692.448 -510.196)"/><path class="h" d="M785.59,317.739a2.79,2.79,0,0,1,2.921-1.78,5.42,5.42,0,0,1,2.046.91l3.553,2.217a15.489,15.489,0,0,1,1.691,1.164c2.45,2.031,3.395,5.37,3.664,8.542s0,6.4.631,9.517c-1.5,1.243-3.162,2.294-4.662,3.534a11.717,11.717,0,0,0-2.174,2.137c-.472.657-.809,1.408-1.3,2.046a4.922,4.922,0,0,1-3.261,1.812,3.535,3.535,0,0,1,1.488,2.3c.219.913.279,1.86.523,2.773.335,1.241,1.029,2.374,1.258,3.638a22.919,22.919,0,0,1,.147,2.653c.29,4.582,3.886,8.586,3.653,13.17a19.971,19.971,0,0,1-4.773-2.509c-.662-.474-1.3-.988-1.929-1.5l-4.738-3.841a39.373,39.373,0,0,1-6.464-6.1c-1.15-1.466-2.087-3.088-3.24-4.55a9.9,9.9,0,0,0-4.334-3.4c-.259.389-.718.659-.977,1.047a.778.778,0,0,0-.108.2.88.88,0,0,0,.061.513,10.686,10.686,0,0,1,.372,2.3l.117,1.4a4.764,4.764,0,0,1,0,1.116,2.941,2.941,0,0,1-2.481,2.31,1.079,1.079,0,0,1-.523-.017,1.119,1.119,0,0,1-.618-.8c-.471-1.589.251-3.265.309-4.918a11.828,11.828,0,0,0-.043-1.257l-.112-1.65c-1.081-.225-1.7-1.386-1.989-2.452-.774-2.878-1.553-5.856-1.1-8.8a7.348,7.348,0,0,0,.186-2.377,15.563,15.563,0,0,0-1.345-2.9c-1.3-3.239,1.464-6.754,1.207-10.231-.108-1.46-1.034-2.729-1.592-4.083a11.529,11.529,0,0,0-1.116-2.253,12.47,12.47,0,0,0-2.083-2.119,79.58,79.58,0,0,1-6.544-6.447,4.837,4.837,0,0,1-2.818-1.291,2.592,2.592,0,0,1-.908-1.754,1.37,1.37,0,0,1,1.161-1.419,4.4,4.4,0,0,1,1.148.26,2.851,2.851,0,0,0,2.956-1.737,8.138,8.138,0,0,0,.528-3.631,3.482,3.482,0,0,1,3.224,1.129,20.42,20.42,0,0,1,2.028,3.069,4.755,4.755,0,0,0,1.012,1.222c.895.711,2.184.845,2.965,1.674.4.424.616.986.978,1.44,1.019,1.278,2.885,1.434,4.278,2.275s2.362,2.377,3.906,2.876c.558.186,1.166.21,1.719.417a3.849,3.849,0,0,1,2.232,3.179,11.524,11.524,0,0,1-.43,4.04l-.716,3.108a2.114,2.114,0,0,0,.229,2.007,2.068,2.068,0,0,0,.824.415c1.3.424,2.753.841,3.977.24a4.706,4.706,0,0,0,1.447-1.265A24.028,24.028,0,0,0,785.59,317.739Z" transform="translate(-615.037 -261.136)"/><path class="b" d="M993.4,662.908a5.526,5.526,0,0,1-2.729,4.156,3.906,3.906,0,0,1-2.956.2,3.065,3.065,0,0,1-1.642-1.231,3.517,3.517,0,0,1-.441-1.032.315.315,0,0,0-.013-.058,8.191,8.191,0,0,1-.173-2,26.158,26.158,0,0,1,.186-3.123,16.914,16.914,0,0,1,.513-2.582c.346-1.207.844-2.37,1.3-3.534.238-.614.467-1.23.655-1.86h0c.114-.372.21-.755.288-1.142l.028-.14c.015-.078.028-.156.041-.234a11.138,11.138,0,0,1,.718-3.116c1.116-2.249,3.289-1.674,3.62.4a3.633,3.633,0,0,1,.043.485c.05,2.625-.991,5.19-.515,7.824a18.22,18.22,0,0,0,.506,1.9c.167.575.318,1.157.433,1.747A9.928,9.928,0,0,1,993.4,662.908Z" transform="translate(-808.164 -543.051)"/><path class="h" d="M987.623,512.511a20.853,20.853,0,0,0,.216,3.218c.5,2.493,2.418,4.7,2.206,7.232a1.952,1.952,0,0,1-.82,1.587c-.54.305-1.432.281-1.609.895-.05.171-.024.357-.08.526a.919.919,0,0,1-.93.506,10.206,10.206,0,0,0-1.129-.1c-1.349.113-1.843,1.918-3.045,2.537a2.3,2.3,0,0,1-2.528-.43A3.149,3.149,0,0,1,979,526a18.472,18.472,0,0,1,.372-2.026,14.052,14.052,0,0,0-.009-3.665,22.16,22.16,0,0,0-.917-5.292c-.277-.8-.646-1.564-.885-2.375a13.821,13.821,0,0,1-.456-3.551c-.073-2.517.1-5.208,1.6-7.232,1.129-1.518,2.748-2.751,4.025-4.156.8-.88,1.031-1.155,1.914-.409a4.027,4.027,0,0,1,1.57,2.286c.223,2.126,0,4.217.4,6.382A49,49,0,0,1,987.623,512.511Z" transform="translate(-801.365 -421.84)"/><circle class="b" cx="9.487" cy="9.487" r="9.487" transform="translate(157.478 30.728)"/><path class="d" d="M901.587,266.951a1.061,1.061,0,0,1,1.579-.506l2.5,1.044a8.155,8.155,0,0,0,1.161-3.676,18.982,18.982,0,0,1,.141-2.392c.227-1.164.917-2.208,1.077-3.384a10.407,10.407,0,0,0-.24-2.85c-.424-2.924.032-5.908-.212-8.852s-1.425-6.1-4.051-7.452a24.624,24.624,0,0,0-2.32-.889c-1.724-.657-3.27-1.708-4.974-2.418a6.573,6.573,0,0,0-5.357-.22c-1.652.817-2.613,3.114-1.54,4.613a5.626,5.626,0,0,0,1.365,1.2,4.952,4.952,0,0,1,2.266,2.826c.417,2.189-1.86,3.906-2.5,6.047a5.14,5.14,0,0,0-.061,2.565c.277,1.269.954,2.467.93,3.765-.019,1.423-.871,2.712-1.031,4.128-.058.519-.022,1.045-.087,1.563a8.061,8.061,0,0,1-.6,1.977,59.171,59.171,0,0,1-5.208,10.824,14.336,14.336,0,0,0,6.814-1.592,11.262,11.262,0,0,1-1.706,4.007,12.909,12.909,0,0,0,5.331-1.86,17.321,17.321,0,0,1-1.693,4.02c.063-.108,1.233-.372,1.449-.495a2.524,2.524,0,0,0,1.023-1.092c.632-1.131,1.027-2.494,1.613-3.67A53.444,53.444,0,0,1,901.587,266.951Z" transform="translate(-725.935 -208.589)"/><path class="d" d="M573.492,101.257a8.806,8.806,0,0,1-1.356.032.3.3,0,0,0-.326.257l-.865,6.488a2.634,2.634,0,0,1-.558,1.285,2.8,2.8,0,0,0-.631,2.141v11.021s-.056,1.47,1.073,1.47a16.323,16.323,0,0,0,4.07,0s.9-.171.9-1.527V111.571a2.655,2.655,0,0,0-.558-2.158,2.7,2.7,0,0,1-.541-1.278l-.9-6.624A.3.3,0,0,0,573.492,101.257Z" transform="translate(-469.787 -99.824)"/><rect class="h" width="5.482" height="9.269" rx="2.741" transform="translate(100.284 11.832)"/><path class="d" d="M642.492,152.257a8.806,8.806,0,0,1-1.356.032.3.3,0,0,0-.326.257l-.865,6.488a2.634,2.634,0,0,1-.558,1.285,2.8,2.8,0,0,0-.631,2.141v11.021s-.056,1.47,1.073,1.47a16.323,16.323,0,0,0,4.07,0s.9-.171.9-1.527V162.571a2.654,2.654,0,0,0-.558-2.158,2.7,2.7,0,0,1-.541-1.278l-.9-6.624A.3.3,0,0,0,642.492,152.257Z" transform="translate(-525.952 -141.338)"/><rect class="h" width="5.482" height="9.269" rx="2.741" transform="translate(113.119 21.319)"/><g class="i" transform="translate(91.151 72.023)"><path class="d" d="M563.975,738.13a3.53,3.53,0,0,1-.069.6q-1.942-.309-3.906-.558v-.16a3.14,3.14,0,0,1,.465-1.577,1.731,1.731,0,0,1,3.149.1,3.138,3.138,0,0,1,.361,1.6Z" transform="translate(-553.013 -688.084)"/><ellipse class="d" cx="2.606" cy="1.99" rx="2.606" ry="1.99" transform="translate(7.005 49.349) rotate(-88.19)"/><ellipse class="d" cx="2.606" cy="1.99" rx="2.606" ry="1.99" transform="translate(7.107 46.165) rotate(-88.19)"/><ellipse class="d" cx="2.606" cy="1.99" rx="2.606" ry="1.99" transform="translate(7.207 42.98) rotate(-88.19)"/><ellipse class="d" cx="2.606" cy="1.99" rx="2.606" ry="1.99" transform="translate(7.308 39.795) rotate(-88.19)"/><path class="h" d="M525.05,495.964a9.232,9.232,0,0,1-.707-1.116l5.257-.694-5.659-.136a9.557,9.557,0,0,1,.058-7.56l7.463,4.176-6.836-5.365a9.539,9.539,0,1,1,15.409,11.161,9.453,9.453,0,0,1,1.032,1.773l-6.9,3.311,7.316-2.2a9.55,9.55,0,0,1-1.827,8.912,9.539,9.539,0,1,1-14.985-.472,9.539,9.539,0,0,1,.372-11.79Z" transform="translate(-522.44 -480.747)"/><path class="c" d="M541.89,596.453a9.487,9.487,0,0,1-2.232,5.83,9.539,9.539,0,1,1-14.985-.472C523.45,600.149,541.924,595.383,541.89,596.453Z" transform="translate(-522.44 -574.804)"/></g></svg>