<svg xmlns="http://www.w3.org/2000/svg" width="199.535" height="174.973" viewBox="0 0 199.535 174.973"><defs><style>.a{fill:#f0efff;}.b{fill:#6c63ff;}.c{fill:#fff;}.d{fill:#817cf1;}.e{fill:#2f2e41;}.f{fill:#9f616a;}.g{opacity:0.1;}.h{fill:#d0cde1;}.i{fill:#3f3d56;}</style></defs><g transform="translate(-0.399 -0.509)"><ellipse class="a" cx="72.402" cy="12.791" rx="72.402" ry="12.791" transform="translate(39.264 149.9)"/><path class="b" d="M237.982,240.476a34.476,34.476,0,1,0-16,12.843,11.152,11.152,0,1,0,16-12.844Z" transform="translate(-174.5 -160.601)"/><rect class="c" width="41.011" height="3.238" transform="translate(14.335 53.736)"/><rect class="c" width="41.011" height="3.238" transform="translate(14.335 59.132)"/><rect class="c" width="41.011" height="3.238" transform="translate(14.335 64.528)"/><path class="d" d="M737.082,131.2a34.476,34.476,0,1,1,16,12.844,11.152,11.152,0,1,1-16-12.844Z" transform="translate(-600.232 -76.973)"/><rect class="c" width="41.011" height="3.238" transform="translate(185.997 31.328) rotate(180)"/><rect class="c" width="41.011" height="3.238" transform="translate(185.997 36.724) rotate(180)"/><rect class="c" width="41.011" height="3.238" transform="translate(185.997 42.12) rotate(180)"/><path class="b" d="M490.48,610.664a19.248,19.248,0,1,1,8.93,7.17,6.226,6.226,0,1,1-8.93-7.17Z" transform="translate(-413.498 -462.07)"/><circle class="c" cx="2.227" cy="2.227" r="2.227" transform="translate(83.165 135.184)"/><circle class="c" cx="2.227" cy="2.227" r="2.227" transform="translate(90.765 135.184)"/><circle class="c" cx="2.227" cy="2.227" r="2.227" transform="translate(98.364 135.184)"/><path class="e" d="M566.295,366.381s9.938.27,11.58.867,2.375,4.867,2.375,4.867l-7.716,2.426-5.772-.327-4.344.307,2.425-6.352Z" transform="translate(-471.072 -298.07)"/><path class="f" d="M577.569,352.486a5.385,5.385,0,0,1-.8,4.314c-1.451,1.788,6.239,8.16,6.239,8.16l4.057-.7s-.894-7.76.307-9.725S577.569,352.486,577.569,352.486Z" transform="translate(-481.917 -287.436)"/><path class="g" d="M577.569,352.486a5.385,5.385,0,0,1-.8,4.314c-1.451,1.788,6.239,8.16,6.239,8.16l4.057-.7s-.894-7.76.307-9.725S577.569,352.486,577.569,352.486Z" transform="translate(-481.917 -287.436)"/><path class="f" d="M492.032,590.132,483.081,602l6.109,3.566,8.407-13.755Z" transform="translate(-369.401 -451.244)"/><path class="e" d="M655.376,708.426s-3.3-3.83-3.149-2.976-2.345,8.1-.027,8.8,22.2,2.559,22.476.313-5.932-3.817-5.932-3.817-3.687-3.543-4.5-3.183S655.376,708.426,655.376,708.426Z" transform="translate(-539.024 -557.468)"/><path class="f" d="M512.663,635.443l7.149,12.18,5.4-3.126L518,634.525Z" transform="translate(-392.04 -485.218)"/><path class="e" d="M698.591,589.184l-2.122,3s-10.115,14.049-9.041,15.183,5.548,5.421,7.823,4.591S705.61,596.77,705.61,596.77L703.5,588.34Z" transform="translate(-566.682 -467.937)"/><path class="e" d="M548.241,526.442a12.85,12.85,0,0,0,8.007,5.658c5.742,1.431,11.74,4.357,11.953,4.32s.817-.36.964.494,1.721,2.342,1.721,2.342,6.342,21.551,8.764,21.575,7.4-1.711,7.5-2.389-7.416-22.686-7.49-23.113l-.881-5.124s9.945,1.588,10.873,1.868,9.178,4.8,9.178,4.8,8.41-6.062.544-12.183-21.388-10.612-21.388-10.612l-4.851-1.364-4.227-.252-.622-2.387-10.012.578-10.449,4.434Z" transform="translate(-459.905 -408.037)"/><circle class="f" cx="7.799" cy="7.799" r="7.799" transform="translate(93.75 54.478)"/><path class="h" d="M560.146,366.857l.938-.161s1.694,6.523,6.935,7.6c0,0,2.586-3.1,2.476-3.621s2.048-3.312,3.2-1.75-.28,29.064.684,29.558,3.033,1.018,1.368,2.842-8.277,4.28-9.742,3.433-4.457-8.027-5.751-10.442-3.366-10.632-3.366-10.632-2.646-9-1.018-11.036S560.146,366.857,560.146,366.857Z" transform="translate(-465.652 -298.311)"/><path class="e" d="M545.988,397.62a44.467,44.467,0,0,1-.893,5.7c-.383,1.527-.828,2.45-1.336,2.41-1.3-.1-1.886,1.805-2.19,4-.325,2.326-.325,4.98-.5,5.918-.236,1.239-1.745,2.185-4.76,1.907a21.278,21.278,0,0,1-5.245-1.286c-4.071-1.48-3.951-13.484-3.269-22.392.417-5.46,1.043-9.759,1.043-9.759A48.462,48.462,0,0,1,527.2,377.9a8.26,8.26,0,0,1-.118-1.4c.06-2.209,4.092-8.177,6.529-11.894s5.766-.99,5.766-.99l-1.158,3.495a11.91,11.91,0,0,1,1.808,5.4c.013,2.636,4.3,4.538,5.834,5.813C546.829,379.129,546.806,389.831,545.988,397.62Z" transform="translate(-444.03 -295.215)"/><path class="e" d="M620.474,372.081s.281.332,1.568.17c1.543-.194,3.666.34,4.159,1.813.9,2.7,3.453,13.695,3.453,13.695s1.061,12.567,1.538,15.343.24,5.234.711,6.692-4.644-2.719-6.529-2.175-3.1-6.5-2.859-8.961A22.178,22.178,0,0,0,622.3,391c-.654-2.525.505-9.209.462-10.741S618.6,374.871,620.474,372.081Z" transform="translate(-515.13 -302.432)"/><path class="f" d="M639.066,538.507s8.258,4.505,9.048,10.917-11.045-6.209-11.045-6.209Z" transform="translate(-528.203 -429.8)"/><path class="f" d="M665.664,516.739s2.53,12.754,6.472,12.077-2.2-12.811-2.2-12.811Z" transform="translate(-550.087 -412.578)"/><path class="e" d="M711.6,750.054s-2.018,2.325-2.519,1.972-1.651,4.46-.614,5.381,5.034,2.432,5.078,3.963,10.762,1.228,11.146-.377-1.345-5.265-2.559-5.935-5.7-6.842-5.7-6.842S712.911,748.73,711.6,750.054Z" transform="translate(-582.524 -590.292)"/><path class="g" d="M553.962,457.841c-1.915-1.352-7.262-1.687-12.009-2-2.083-.134-4.05-.265-5.562-.477-1.457-.2-2.766-1.533-3.93-3.516-1.763-3-3.188-7.511-4.286-11.86.417-5.46,1.043-9.759,1.043-9.759a48.478,48.478,0,0,1-1.632-6.217,3.328,3.328,0,0,1,1.053-.948c5.035-2.161,9.843,19.109,10.453,22.447.01.055.018.107.026.152.3,1.719,3.495,3.188,6.361,3.77,1.766.359,3.408.382,4.165-.084,1.989-1.221,8.1,3.665,8.567,3.8S556.712,459.787,553.962,457.841Z" transform="translate(-444.414 -341.333)"/><path class="e" d="M524.055,417.486s-3.66,1.728-2.052,9.8,4.847,21.808,9.8,22.5,14.819.53,17.571,2.475,4.714-4.547,4.25-4.687-6.579-5.024-8.567-3.8-10.049-.911-10.525-3.686S529.172,415.287,524.055,417.486Z" transform="translate(-439.83 -337.063)"/><path class="e" d="M644.446,401.484l4.022,9.333s.4-.2.875,1.256.691,2.739,1.515,3.7,4.49,14.616,4.6,15.256-5.064,2.849-6.22,1.069S644.446,401.484,644.446,401.484Z" transform="translate(-533.849 -324.935)"/><path class="e" d="M570.824,306.4c.3-.08.343-.477.353-.786a4.109,4.109,0,0,1,2.636-3.837,4.432,4.432,0,0,1,1.868-.1,7.076,7.076,0,0,1,2.53.844,3.947,3.947,0,0,0,1.286.582c.309.047,1.648.436,1.956.491.677.12,1.306.726,1.956.5.622-.216.759-1.02.774-1.678a8.19,8.19,0,0,0-2.105-4.687,5.228,5.228,0,0,0-3.024-1.439,20.13,20.13,0,0,0-3.955-.241,12.568,12.568,0,0,0-5.246.945A5.085,5.085,0,0,0,566.8,301.1c-.016.373.022.747-.009,1.119a16.465,16.465,0,0,1-.784,2.608,4.772,4.772,0,0,0,.667,3.814c.6.882,1.541,1.68,1.507,2.746l1.3-1.346a1.067,1.067,0,0,0,.317-1.3l-.46-1.794a1.618,1.618,0,0,1-.04-1C569.792,304.728,570.326,306.537,570.824,306.4Z" transform="translate(-473.711 -244.235)"/><path class="i" d="M832.429,527.378a16.715,16.715,0,0,1-1.764-6.612c-.4-4.04-.144-10.849,3.387-20.347a41.031,41.031,0,0,0-1.626-32.657l.406-.236a36.042,36.042,0,0,1,3.4,9.633,42.022,42.022,0,0,1-1.74,23.424c-6.679,17.963-1.713,26.467-1.663,26.551Z" transform="translate(-676.254 -375.477)"/><circle class="b" cx="3.051" cy="3.051" r="3.051" transform="translate(150.507 85.125)"/><circle class="i" cx="3.051" cy="3.051" r="3.051" transform="translate(160.13 96.391)"/><circle class="b" cx="3.051" cy="3.051" r="3.051" transform="translate(153.558 103.901)"/><circle class="b" cx="3.051" cy="3.051" r="3.051" transform="translate(161.538 110.237)"/><circle class="i" cx="3.051" cy="3.051" r="3.051" transform="translate(151.211 120.094)"/><path class="i" d="M844.908,680.17s-3.051-7.51,6.1-13.143Z" transform="translate(-686.891 -528.157)"/><path class="i" d="M790.939,696.626s-1.389-7.986-12.136-7.918Z" transform="translate(-636.674 -544.749)"/></g></svg>