<svg xmlns="http://www.w3.org/2000/svg" xmlns:xlink="http://www.w3.org/1999/xlink" width="217.84" height="173.7" viewBox="0 0 217.84 173.7"><defs><style>.a,.f{fill:#6c63ff;}.a,.c,.o{opacity:0.1;}.b{fill:#535461;}.d{fill:#fff;}.e{opacity:0.2;}.g{fill:url(#a);}.h{fill:#4c4c78;}.i{fill:#ffb9b9;}.j{fill:#cbcdda;}.k{opacity:0.05;}.l{fill:none;stroke:blue;stroke-miterlimit:10;}.m{fill:#474463;}.n{fill:#472727;}</style><linearGradient id="a" x1="-2.392" y1="1" x2="-2.392" gradientUnits="objectBoundingBox"><stop offset="0" stop-color="gray" stop-opacity="0.251"/><stop offset="0.54" stop-color="gray" stop-opacity="0.122"/><stop offset="1" stop-color="gray" stop-opacity="0.102"/></linearGradient></defs><g transform="translate(-0.048 0.023)"><ellipse class="a" cx="89.862" cy="6.234" rx="89.862" ry="6.234" transform="translate(15.048 161.21)"/><path class="a" d="M85.084,53.547c-5.6,6.555-7.016,14.865-7.093,22.832-.054,5.618.714,11.712,5.4,15.856,6.173,5.451,18.025,6.526,21.084,13.492,2.712,6.19-3.6,12.418-9.662,16.786s-13.025,9.718-11.892,16.223c.718,4.154,4.654,7.415,8.581,10.152,7.465,5.216,15.856,9.778,25.315,12,17.162,4.022,35.7-.142,51.779-6.447,9.9-3.88,21.393-8.643,31.223-4.652a68.226,68.226,0,0,1,7.191,3.964c6.958,3.812,15.455,5.216,23.725,6.407,12.121,1.752,24.86,3.215,36.539.054s21.772-12.405,19.984-22.265c-1.686-9.288-12.418-15.342-20.969-21.687-3.017-2.239-6.088-5.205-5.337-8.462.6-2.583,3.4-4.381,5.908-6.05,13.177-8.833,22.861-21.028,27.314-34.4,2.1-6.309,2.862-13.577-1.83-18.9-3.784-4.291-10.271-6.353-16.44-8.049-11.447-3.148-23.181-5.808-35.221-6.526s-24.478.651-35.166,5.193c-5.126,2.18-9.772,5.051-14.948,7.15-14.7,5.958-32.012,5.157-48.4,4.216-5.856-.336-11.977-.933-17.062-3.49-4.381-2.207-6.885-3.789-12.309-4.035C102.17,42.429,91.171,46.408,85.084,53.547Z" transform="translate(-77.94 -33.72)"/><path class="b" d="M233.972,304.654l-.229.474-1.488,3.056-15.6,32.039L190.175,405.1l-3.785.029,26.492-64.9,18.053-37.073,1.321.653,1.488.736Z" transform="translate(-147.466 -239.922)"/><path class="b" d="M459.164,405.127l-3.115-.029L429.57,340.223l-15.192-31.2-1.9-3.9-.232-.474.232-.115,1.9-.939.912-.451,17.781,37.073Z" transform="translate(-326.206 -239.922)"/><rect class="b" width="3.386" height="110.692" transform="translate(84.789 54.513)"/><path class="b" d="M474.088,207.69A4.312,4.312,0,0,0,469.78,212v1.54a4.31,4.31,0,1,0,8.619,0V212A4.314,4.314,0,0,0,474.088,207.69Zm3.232,5.842a3.234,3.234,0,1,1-6.467,0v-1.54a3.234,3.234,0,0,1,6.467,0Z" transform="translate(-387.994 -171.413)"/><path class="c" d="M354.82,307.168h-3.5l-15.192-31.2v31.2h-3.384V275.129l-15.6,32.039h-3.77l18.053-37.073,1.321.653V261.38h3.384v9.165l.912-.451Z" transform="translate(-247.955 -206.867)"/><path class="c" d="M478.394,229.08v1.385a4.31,4.31,0,1,1-8.619,0V229.08h1.077v1.385a3.234,3.234,0,0,0,6.467,0V229.08Z" transform="translate(-387.99 -188.34)"/><rect class="b" width="130.202" height="58.791" transform="translate(20.994 41.048)"/><rect class="d" width="125.277" height="53.559" transform="translate(23.304 42.895)"/><g class="e" transform="translate(35.675 48.718)"><rect class="f" width="5.923" height="2.698"/></g><g class="e" transform="translate(35.675 53.935)"><rect class="f" width="5.923" height="2.698"/></g><g class="e" transform="translate(35.675 59.151)"><rect class="f" width="5.923" height="2.698"/></g><g class="e" transform="translate(35.675 64.367)"><rect class="f" width="5.923" height="2.698"/></g><g class="e" transform="translate(35.675 69.584)"><rect class="f" width="5.923" height="2.698"/></g><g class="e" transform="translate(35.675 74.8)"><rect class="f" width="5.923" height="2.698"/></g><g class="e" transform="translate(35.675 80.016)"><rect class="f" width="5.923" height="2.698"/></g><g class="e" transform="translate(35.675 85.232)"><rect class="f" width="5.923" height="2.698"/></g><g class="e" transform="translate(46.827 87.931)"><rect class="f" width="5.923" height="2.698"/></g><g class="e" transform="translate(57.26 87.931)"><rect class="f" width="5.923" height="2.698"/></g><g class="e" transform="translate(67.691 87.931)"><rect class="f" width="5.923" height="2.698"/></g><g class="e" transform="translate(78.125 87.931)"><rect class="f" width="5.923" height="2.698"/></g><g class="e" transform="translate(88.556 87.931)"><rect class="f" width="5.923" height="2.698"/></g><g class="e" transform="translate(98.99 87.931)"><rect class="f" width="5.923" height="2.698"/></g><g class="e" transform="translate(109.421 87.931)"><rect class="f" width="5.923" height="2.698"/></g><g class="e" transform="translate(119.855 87.931)"><rect class="f" width="5.923" height="2.698"/></g><g class="e" transform="translate(130.286 87.931)"><rect class="f" width="5.923" height="2.698"/></g><rect class="f" width="5.923" height="16.907" transform="translate(46.827 68.324)"/><rect class="f" width="5.923" height="24.733" transform="translate(57.26 60.501)"/><rect class="f" width="5.923" height="31.298" transform="translate(67.691 53.935)"/><rect class="f" width="5.923" height="27.894" transform="translate(78.125 57.338)"/><rect class="f" width="5.923" height="33.816" transform="translate(88.556 51.417)"/><g class="e" transform="translate(98.99 64.367)"><rect class="f" width="5.923" height="20.865"/></g><g class="e" transform="translate(109.421 64.367)"><rect class="f" width="5.923" height="20.865"/></g><g class="e" transform="translate(119.855 64.367)"><rect class="f" width="5.923" height="20.865"/></g><g class="e" transform="translate(130.286 64.367)"><rect class="f" width="5.923" height="20.865"/></g><path class="b" d="M428.667,308.39l-50.717,3.121v.989l51.8-2.055Z" transform="translate(-299.061 -244.069)"/><path class="g" d="M757.525,211.944a19.222,19.222,0,0,0,1.949-11.212c-.705-6.847-3.257-17.929-3.257-17.929s1.108-6.209-4.9-7.081a21.442,21.442,0,0,1-6.4-2.374,6.14,6.14,0,0,1-2.295-2.295s-.035.1-.1.29a3.314,3.314,0,0,1-.163-.29s-.015.038-.038.1l-1.02-1.59s-.14.148-.376.392a10.616,10.616,0,0,1-1.043-1.878,5.424,5.424,0,0,0,.745-.238,1.46,1.46,0,0,0,.607-.388,1.539,1.539,0,0,0,.275-.686,8.347,8.347,0,0,0,.138-2.412,11.889,11.889,0,0,1-.14-1.888c.046-.678.286-1.333.319-2.013a5.146,5.146,0,0,0-1.271-3.286c-.438-.565-.93-1.091-1.31-1.7-.33-.526-.57-1.106-.924-1.617a5.582,5.582,0,0,0-3.653-2.138,12.994,12.994,0,0,0-4.325.142,35.953,35.953,0,0,1-3.755.584c-1.093.063-1.984-.307-2.985.417a2.887,2.887,0,0,0-1.164,2.086,1.1,1.1,0,0,0,.031.417,3,3,0,0,0,.209.407c.444.876-.232,1.917-.144,2.9a1.934,1.934,0,0,0,1.711,1.686c-.04.083-.083.165-.121.25a8.654,8.654,0,0,0,7.066,12.115l.388.3c.876.678,1.861,1.49,2.81,2.372l-.019.015-.154-.088a8.31,8.31,0,0,1-.91.626,8.507,8.507,0,0,1-3.889,1.316s-2.854,1.513-3.837,6.5a16.773,16.773,0,0,1-8.418,4.141c-5.606.835-12.518,1.108-12.518,1.108s-.056.1-.136.284l-.638-.117a1.149,1.149,0,0,1-.027.209l-.25-.113c-1.98-.866-5.935-2.128-6.436,1.35-.672,4.665,3.776,4.129,3.776,4.129a20.744,20.744,0,0,1,2.7-.82l.248-.048a1.38,1.38,0,0,0,.175.342h.605a7.141,7.141,0,0,0,.757,1.231l14.1-.309a14.8,14.8,0,0,1,4.634-.192c-.97,7.252-2.115,15.2-2.115,15.2s-2.4,12.595-.72,13.911a25.556,25.556,0,0,1,2.975-.8,13.535,13.535,0,0,0,.246,2.318l1.074,7.033s.417,7.185,1.813,11.475l1.231,5.862,1.031,4.431.58,7.521a71.442,71.442,0,0,1,1.723,9.689c.545,5.053,3.5,13.219,3.9,14.293-1.01,1.429-3.083,3.853-5.685,4.1-3.714.359-3.8,2.6-1.208,3.4s8.057,0,8.057,0l7.7-1.9a6.679,6.679,0,0,0-.184,2.664c.492.359,7.968,2.295,8.237-.805q.031-.384.056-.745a15.77,15.77,0,0,0-.782-5.862c-.061-.186-.115-.373-.163-.561a3.465,3.465,0,0,0,.3-.394s.538-8.37.941-11.37c.031-.24.052-.532.063-.862.186-3.6-1.127-13.058-1.127-13.058s-1.621-6.155-1.56-8.984a2.7,2.7,0,0,1,.119-.693.769.769,0,0,0-.021-.15.4.4,0,0,1,.031-.119,66.3,66.3,0,0,1-.707-8.984,6.947,6.947,0,0,1,.209-1.481,9.737,9.737,0,0,0,.2-1.934c.1-2.295-.017-6.259-.184-9.977.019-.063.038-.125.052-.2a1.939,1.939,0,0,0-.1-.876c-.013-.24-.023-.478-.035-.714.069-.236.125-.486.175-.745h.108v.015s7.014-.336,8.627-2.216c0,0-1.629-5.063-2.533-9.18ZM727.3,196.2l-.111-.04c.177-.626.388-1.354.626-2.118C727.612,194.864,727.436,195.615,727.3,196.2Zm7.118-20.756.031.029-.033-.019Zm8.762,108.595c-.378-1.3-1.878-6.6-1.83-9.125a2.572,2.572,0,0,1,.115-.647,4.831,4.831,0,0,0,.209-1.412,37.562,37.562,0,0,0-.86-7.362s-2.259-6.374-2.086-11.435c0-.127.015-.255.023-.382.038-.48.067-1,.088-1.548v-.01c.086-1.955.067-4.308.01-6.5l-.013-.081c-.077-2.906-.221-5.522-.282-6.557.209,1.5,1.544,10.807,2.12,12.33a31.266,31.266,0,0,0,1.746,7.928l1.569,9.443s.4,11.237,1.072,14.414c.3,1.415.555,2.368.745,2.99-.271,1.266-.709,3.388-1,5.145-.173-1.145-.782-5.51-1.621-7.185Z" transform="translate(-567.872 -127.02)"/><path class="h" d="M850.738,782.033s-2.618,4.746-6.3,5.1-3.77,2.572-1.2,3.371,7.986,0,7.986,0l7.719-1.907s-.933-7.632-2.174-8.03S850.738,782.033,850.738,782.033Z" transform="translate(-682.137 -624.729)"/><path class="h" d="M925.158,786.127s-1.953,8.783-1.46,9.14,7.9,2.262,8.164-.8q.031-.386.056-.739a15.658,15.658,0,0,0-.776-5.81,4.649,4.649,0,0,1-.3-1.792C930.965,784.886,925.158,786.127,925.158,786.127Z" transform="translate(-747.149 -628.736)"/><path class="i" d="M863.353,214.772s-5.99,14.712-4.924,9.987c.705-3.129-3.853-7.287-7.006-9.73-1.6-1.252-2.844-2.047-2.844-2.047s11.245-13.11,10.448-7.454a8.518,8.518,0,0,0,.613,4.565A11.964,11.964,0,0,0,863.353,214.772Z" transform="translate(-687.766 -168.581)"/><path class="i" d="M706.206,334.614a3.433,3.433,0,0,0-1.371.086,20.594,20.594,0,0,0-2.672.812s-4.408.532-3.743-4.091c.494-3.447,4.415-2.195,6.378-1.339.668.294,1.11.54,1.11.54Z" transform="translate(-568.879 -267.523)"/><path class="c" d="M729.878,338.194a3.433,3.433,0,0,0-1.371.086c-.48-1.21-.115-4.079-.038-4.619.668.294,1.11.54,1.11.54Z" transform="translate(-592.551 -271.102)"/><path class="j" d="M730.895,333.439l-1.154-.209s-.59,3.964.182,5.007h1.327Z" transform="translate(-593.549 -270.762)"/><path class="h" d="M819.824,365.893s-3.526-2.109-3.947.553-.976,7.21-.976,7.21l-.976,5.789-1.264,11.6.177,1.974s3.755-1.264,4.636-.82,1.6-4.88,1.6-4.88l1.46-5.5.221-11.666Z" transform="translate(-659.339 -295.983)"/><path class="c" d="M819.824,365.893s-3.526-2.109-3.947.553-.976,7.21-.976,7.21l-.976,5.789-1.264,11.6.177,1.974s3.755-1.264,4.636-.82,1.6-4.88,1.6-4.88l1.46-5.5.221-11.666Z" transform="translate(-659.339 -295.983)"/><path class="h" d="M753.642,303.4a16.918,16.918,0,0,1-9.215,4.957c-5.556.83-12.411,1.1-12.411,1.1a6.014,6.014,0,0,0,.766,6.388l13.978-.309a13.513,13.513,0,0,1,5.491,0Z" transform="translate(-595.058 -247.155)"/><path class="k" d="M753.642,303.4a16.918,16.918,0,0,1-9.215,4.957c-5.556.83-12.411,1.1-12.411,1.1a6.014,6.014,0,0,0,.766,6.388l13.978-.309a13.513,13.513,0,0,1,5.491,0Z" transform="translate(-595.058 -247.155)"/><path class="l" d="M692.29,384.58" transform="translate(-564.082 -311.399)"/><path class="c" d="M859.049,209.965c-1.364,2.921-3.737,5.074-7.177,5.074-.152,0-.3,0-.449-.01-1.6-1.252-2.844-2.047-2.844-2.047s11.245-13.11,10.448-7.454C858.782,207.259,858.5,208.665,859.049,209.965Z" transform="translate(-687.765 -168.581)"/><path class="i" d="M840.405,181.579a8.554,8.554,0,1,1-2.5-6.071A8.572,8.572,0,0,1,840.405,181.579Z" transform="translate(-667.728 -143.96)"/><path class="j" d="M854.922,299.024s-19.119,1.688-19.82-.753,1.951-9.05,1.951-9.05l-.864-9.228-.031-.353s2.4-9.983,2.307-10.78c-.083-.718,3.855-9.094,4.665-10.807.1-.2.146-.307.146-.307l.152.088.067.04.937.547,3.7-.876,4.458-2.335.417,25.538Z" transform="translate(-677.006 -209.019)"/><path class="c" d="M865.249,268.684a1.523,1.523,0,0,0-1.819.953,13.561,13.561,0,0,1-.709,1.642l-.509,3.038-.933,4.8-.688,21.228.311,3.77,1.709-3.038.311-19.843v-2.468a17.865,17.865,0,0,1,1.423-6.2l.238-.557,1.485-1.909Z" transform="translate(-697.27 -219.647)"/><path class="h" d="M863.979,267.4a1.523,1.523,0,0,0-1.819.953,13.455,13.455,0,0,1-.711,1.642l-.509,3.04-.933,4.8-.686,21.228.311,3.772,1.709-3.048.311-19.83v-2.474a17.96,17.96,0,0,1,1.423-6.2l.24-.557,1.485-1.907Z" transform="translate(-696.265 -218.634)"/><path class="c" d="M885.213,241.31s-4.525,4.8-6.123,5.368c0,0,.8,3.638,1.6,4.348,0,0,4.748-4.842,5.589-5.234l.705-1.725Z" transform="translate(-711.91 -198.019)"/><path class="j" d="M885.213,240s-4.525,4.8-6.123,5.368c0,0,.8,3.638,1.6,4.348,0,0,4.748-4.842,5.589-5.234l.705-1.723Z" transform="translate(-711.91 -196.982)"/><path class="c" d="M847.993,267.37l-.046.125-1.45,3.887-2.593,7.333s-.023.075-.069.209c-.43,1.335-2.739,8.581-3.194,10.686l-.031-.353s2.4-9.983,2.307-10.78c-.083-.718,3.855-9.094,4.665-10.807.129-.088.229-.163.3-.219Z" transform="translate(-681.458 -218.642)"/><path class="h" d="M824.008,267.36l-1.5,4.014-2.593,7.333s-.023.075-.069.209c-.455,1.423-3.048,9.545-3.257,11.03-.236,1.631-3.5,10.45-3.5,10.45l-1.863,15.269c-1.669-1.3.7-13.769.7-13.769s2.662-18.5,3.292-24.654,4.029-7.953,4.029-7.953a8.5,8.5,0,0,0,3.853-1.3A8.139,8.139,0,0,0,824.008,267.36Z" transform="translate(-657.738 -218.634)"/><path class="c" d="M856.213,508.515c-.4,2.973-.931,11.266-.931,11.266-1.863,2.794-5.99,1.285-5.99,1.285a18.68,18.68,0,0,1-1.108-3.993c-.666-3.159-1.064-14.285-1.064-14.285l-1.554-9.346a30.891,30.891,0,0,1-1.73-7.853c-.626-1.642-2.13-12.422-2.13-12.422a141.619,141.619,0,0,1,.223,14.773c-.4,5.1,2.038,11.969,2.038,11.969s1.377,6.434.666,8.431,1.775,10.246,1.775,10.246c-.209,2.4-7.273,1.421-7.273,1.421s-3.323-8.919-3.906-14.287a70.934,70.934,0,0,0-1.709-9.6l-.576-7.454-1.022-4.406-1.218-5.81c-1.377-4.258-1.8-11.379-1.8-11.379l-1.066-6.987c-.7-3.455.209-7.511.809-9.632.261-.92.469-1.481.469-1.481.611.434,4.112.943,5.923,1.356a10.383,10.383,0,0,0,3.025.242,67.408,67.408,0,0,0,13.517-2.479c.3-.09.457-.142.457-.142l.094.8.221,1.9.394,3.378s1.2,18.011.488,20.445.488,10.64.488,10.64c-.666,1.947,1.419,9.858,1.419,9.858S856.613,505.542,856.213,508.515Z" transform="translate(-671.156 -361.548)"/><path class="m" d="M856.213,507.3c-.4,2.973-.931,11.266-.931,11.266-1.863,2.8-5.99,1.285-5.99,1.285a18.676,18.676,0,0,1-1.108-3.991c-.666-3.157-1.064-14.287-1.064-14.287l-1.554-9.359a31.447,31.447,0,0,1-1.73-7.863c-.626-1.642-2.13-12.422-2.13-12.422a141.618,141.618,0,0,1,.223,14.773c-.4,5.1,2.038,11.977,2.038,11.977s1.377,6.434.666,8.431,1.775,10.248,1.775,10.248c-.209,2.4-7.273,1.419-7.273,1.419s-3.323-8.908-3.906-14.278a70.934,70.934,0,0,0-1.709-9.6l-.576-7.452-1.022-4.392-1.218-5.81c-1.377-4.26-1.8-11.381-1.8-11.381l-1.066-6.987c-.7-3.455.209-7.511.809-9.632.261-.918.469-1.479.469-1.479.611.434,4.112.941,5.923,1.354a10.31,10.31,0,0,0,3.025.242,67.408,67.408,0,0,0,13.517-2.478l.457-.14.094.8.221,1.9.394,3.378s1.2,18.009.488,20.445.488,10.64.488,10.64c-.666,1.944,1.419,9.856,1.419,9.856S856.613,504.327,856.213,507.3Z" transform="translate(-671.156 -360.598)"/><path class="c" d="M843.23,181.609a8.554,8.554,0,0,1-1.135,4.273,4.486,4.486,0,0,1-3.755-.908,18.447,18.447,0,0,1-1.715-2.126,12.886,12.886,0,0,0-1.225-1.208,3.887,3.887,0,0,0-.966-.7,1.312,1.312,0,0,0-1.158-.013c-.471.263-.626.849-.9,1.316a1.759,1.759,0,0,1-.983.857,1.043,1.043,0,0,1-1.175-.4c-.29-.5-.077-1.277-.563-1.581a3.1,3.1,0,0,0-.4-.163c-.626-.284-.7-1.125-.753-1.813a1.131,1.131,0,0,0-.384-.9,1.769,1.769,0,0,0-1-.083,1.291,1.291,0,0,1-.3-.023,8.573,8.573,0,0,1,16.409,3.474Z" transform="translate(-670.553 -143.991)"/><path class="n" d="M819.907,155.854a2.862,2.862,0,0,0-1.154,2.074,1.069,1.069,0,0,0,.031.407,2.748,2.748,0,0,0,.209.4c.438.87-.232,1.9-.146,2.871a1.909,1.909,0,0,0,1.878,1.669c.338,0,.709-.1,1,.083a1.127,1.127,0,0,1,.384.9c.054.688.123,1.529.751,1.813a3.505,3.505,0,0,1,.4.163c.488.3.275,1.085.565,1.581a1.043,1.043,0,0,0,1.175.4,1.753,1.753,0,0,0,.981-.855c.269-.469.43-1.043.9-1.316a1.306,1.306,0,0,1,1.158.01,3.9,3.9,0,0,1,.966.705,12.633,12.633,0,0,1,1.225,1.208,18.612,18.612,0,0,0,1.715,2.124,4.743,4.743,0,0,0,4.853.6,1.473,1.473,0,0,0,.6-.384,1.532,1.532,0,0,0,.273-.682,8.275,8.275,0,0,0,.138-2.389,11.85,11.85,0,0,1-.14-1.878c.044-.672.284-1.321.317-1.992a5.134,5.134,0,0,0-1.252-3.259c-.434-.561-.922-1.081-1.3-1.682-.328-.522-.565-1.1-.916-1.6a5.518,5.518,0,0,0-3.622-2.122,12.869,12.869,0,0,0-4.285.142,34.8,34.8,0,0,1-3.73.578C821.782,155.5,820.9,155.135,819.907,155.854Z" transform="translate(-664.156 -129.385)"/><path class="c" d="M858.95,267.36l-1.5,4.014-2.593,7.333s-.023.075-.069.209v.01l3.263-10.945A8.13,8.13,0,0,0,858.95,267.36Z" transform="translate(-692.68 -218.634)"/><path class="i" d="M934.766,480.309s.154,4.857-1.154,6.077l-3.482-6.566,2.921-1.421Z" transform="translate(-752.302 -385.645)"/><path class="c" d="M904.113,299.046c-1.6,1.863-8.554,2.2-8.554,2.2l-6.885-10.849s-1.629-1.131-4.69-6.223a18.845,18.845,0,0,1-2.789-11.944c.171-2.929,2.086-11.347,2.086-11.347.3-1.894,4.59-13.769,4.59-13.769a6.1,6.1,0,0,0,2.27,2.27,21.144,21.144,0,0,0,6.349,2.353c5.958.866,4.859,7.02,4.859,7.02s.067,23.923-.3,26.786S904.113,299.046,904.113,299.046Z" transform="translate(-713.521 -202.609)"/><path class="j" d="M858.182,447.519l-.2,1.775-2.418-.887-1.773-2.685,1.331-1.043Z" transform="translate(-675.628 -351.925)"/><path class="c" d="M857.651,449.823l-1.264.129L844.2,451.17a19.746,19.746,0,0,1-5.862-.288l-5.654-1.131c.261-.918.469-1.479.469-1.479.611.434,4.112.941,5.923,1.354a10.311,10.311,0,0,0,3.025.242,67.407,67.407,0,0,0,13.517-2.479l.551.657Z" transform="translate(-675.183 -361.105)"/><g class="o" transform="translate(157.965 86.149)"><path d="M835.049,451.687a1.1,1.1,0,0,1-.117-.067.063.063,0,0,1-.013.031Z" transform="translate(-834.92 -450.602)"/><path d="M937.421,493.76s-2.086-7.911-1.419-9.856c0,0-1.2-8.2-.486-10.64s-.49-20.446-.49-20.446l-.394-3.378-.221-1.9-.092-.8-.459.14-.284.083.035.309.221,1.9.394,3.378s1.2,18.011.49,20.445.486,10.64.486,10.64c-.666,1.947,1.419,9.856,1.419,9.856s1.46,10.561,1.066,13.532-.933,11.266-.933,11.266c-1.36,2.042-3.928,1.788-5.216,1.5l.023.05s4.127,1.51,5.99-1.285c0,0,.532-8.3.933-11.266S937.421,493.76,937.421,493.76Z" transform="translate(-911.382 -446.74)"/><path d="M888.2,601.739c.709-2-.666-8.431-.666-8.431s-2.439-6.885-2.04-11.977c.167-2.126.156-5.043.086-7.719-.565-3.453-1.108-7.3-1.108-7.3a142.005,142.005,0,0,1,.225,14.771c-.4,5.1,2.038,11.979,2.038,11.979s1.377,6.432.666,8.429,1.771,10.237,1.771,10.237c-.177,1.919-4.736,1.669-6.545,1.5l.069.184s7.054.976,7.275-1.419C889.978,611.987,887.493,603.736,888.2,601.739Z" transform="translate(-872.676 -541.364)"/></g><path class="h" d="M905.377,299.046c-1.6,1.863-8.554,2.2-8.554,2.2l-6.885-10.849s-1.629-1.131-4.692-6.223a18.845,18.845,0,0,1-2.789-11.944c.169-2.929,2.086-11.347,2.086-11.347.3-1.894,4.59-13.769,4.59-13.769a6.068,6.068,0,0,0,2.27,2.27,21.145,21.145,0,0,0,6.349,2.353c5.956.866,4.857,7.02,4.857,7.02s.067,23.923-.3,26.786S905.377,299.046,905.377,299.046Z" transform="translate(-714.52 -202.609)"/><path class="c" d="M890.679,252.974l-1.5.557,1,.7L882.73,272.2c.173-2.921,2.086-11.347,2.086-11.347.3-1.894,4.59-13.769,4.59-13.769a6.068,6.068,0,0,0,2.27,2.27Z" transform="translate(-714.791 -202.585)"/><path class="c" d="M851.5,387.583l7.619-1.963,1,3.094-7.786,1.9Z" transform="translate(-673.816 -305.187)"/><path class="c" d="M933.664,279.712s-3.461,3.257-2.155,10.515,3.394,15.138,3.394,15.138L929.27,320.97s3.926,4.093,5.856,4.59l5.622-12.478a19.054,19.054,0,0,0,1.93-11.112c-.7-6.787-3.227-17.769-3.227-17.769S939.453,277.517,933.664,279.712Z" transform="translate(-751.621 -228.059)"/><path class="h" d="M934.9,279.712s-3.463,3.257-2.161,10.515,3.392,15.138,3.392,15.138L930.5,320.97s3.926,4.093,5.856,4.59l5.633-12.478a19.054,19.054,0,0,0,1.93-11.112c-.7-6.787-3.227-17.769-3.227-17.769S940.691,277.517,934.9,279.712Z" transform="translate(-752.595 -228.059)"/><path class="c" d="M928.2,480.639s4.392,6.079,4.06,7.7a.984.984,0,0,1-1.619.753l-1.73-2.372-1.554-4.437S927.512,480.365,928.2,480.639Z" transform="translate(-750.11 -387.396)"/><path class="c" d="M925.653,480.639s4.381,6.079,4.06,7.7a.984.984,0,0,1-1.619.753l-1.732-2.372-1.552-4.437S924.962,480.365,925.653,480.639Z" transform="translate(-748.092 -387.396)"/><path class="m" d="M926.933,480.639s4.381,6.079,4.058,7.7a.984.984,0,0,1-1.619.753l-1.73-2.372-1.552-4.437S926.24,480.365,926.933,480.639Z" transform="translate(-749.105 -387.396)"/></g></svg>